<?xml version="1.0" standalone="no"?>
<!DOCTYPE svg PUBLIC "-//W3C//DTD SVG 20010904//EN"
 "http://www.w3.org/TR/2001/REC-SVG-20010904/DTD/svg10.dtd">
<svg version="1.0" xmlns="http://www.w3.org/2000/svg"
 width="800.000000pt" height="800.000000pt" viewBox="0 0 800.000000 800.000000"
 preserveAspectRatio="xMidYMid meet">

<g transform="translate(0.000000,800.000000) scale(0.100000,-0.100000)"
fill="#000000" stroke="none">
<path d="M5370 6250 c-162 -16 -351 -90 -480 -189 -36 -27 -560 -546 -1165
-1153 -1192 -1194 -1145 -1144 -1202 -1313 -25 -73 -27 -93 -27 -230 0 -142 2
-154 30 -232 42 -113 88 -185 169 -268 79 -81 176 -143 285 -181 103 -36 286
-45 393 -19 94 23 184 64 260 119 78 56 1753 1732 1765 1766 21 55 -42 122
-96 103 -9 -3 -411 -398 -892 -877 -806 -803 -880 -874 -941 -904 -82 -39
-175 -62 -256 -62 -204 0 -402 118 -495 296 -88 168 -90 337 -6 514 l40 85
1077 1078 c592 593 1106 1102 1142 1132 76 63 196 126 289 151 93 26 320 26
410 0 153 -44 301 -139 394 -252 183 -221 232 -510 134 -781 -63 -174 -20
-128 -1457 -1564 -832 -832 -1351 -1343 -1392 -1373 -92 -64 -238 -131 -345
-158 -128 -32 -360 -32 -488 0 -172 43 -339 138 -468 265 -123 122 -225 297
-268 463 -31 118 -37 306 -15 430 30 168 110 343 211 460 26 31 542 551 1148
1156 605 606 1109 1113 1118 1127 23 34 23 63 -3 95 -16 21 -29 26 -62 26
l-42 0 -1131 -1132 c-711 -712 -1152 -1161 -1186 -1208 -109 -148 -171 -289
-209 -473 -18 -88 -20 -125 -16 -267 4 -123 11 -185 26 -241 91 -334 277 -579
566 -743 347 -199 803 -199 1150 0 44 24 111 69 150 99 38 30 667 652 1396
1382 1387 1389 1378 1380 1449 1537 54 118 72 199 77 352 6 160 -8 256 -58
384 -152 395 -554 641 -979 600z"/>
</g>
</svg>
